<svg xmlns="http://www.w3.org/2000/svg" width="1024" height="1024" viewBox="108 108 810 810"><path d="M498.121 248.917c31.97 -0.714 63.514 1.84 94.879 8.083l5.27 1c16.103 3.135 31.726 7.933 47.293 13.062l3.103 1.011c4.16 1.386 8.2 2.734 12.06 4.83 2.883 1.555 5.022 2.696 8.274 3.097 3.518 -1.471 6.46 -3.449 9.535 -5.66 13 -9.214 32.84 -12.83 48.465 -13.34l1.936 -0.094c32.472 -1.47 68.896 8.64 93.449 30.718 2.587 2.411 5.102 4.888 7.615 7.376l2.043 1.86c12.234 11.31 20.917 28.268 25.957 43.952 2.166 6.7 5.106 11.413 9.566 16.926 9.235 11.866 14.97 26.75 18.434 41.262l0.842 3.519c2.105 9.487 2.21 18.234 1.753 27.899 -0.721 17.636 2.489 30.057 9.921 46.175 8.19 18.804 12.411 39.224 15.484 59.407l0.613 3.793c0.764 6.525 0.585 13.145 0.574 19.707l-0.001 2.175c-0.024 10.241 -0.24 20.23 -2.186 30.325l-0.39 2.11c-6.344 33.648 -22.29 62.054 -45.61 86.89l-1.491 1.594c-9.05 9.597 -18.8 17.722 -29.509 25.406l-2.072 1.489C792.483 743.042 744.58 764.442 697 782l-3.429 1.269C667.783 792.768 641.786 800.822 615 807l-3.447 0.805c-78.364 17.957 -163.093 14.49 -239.588 -10.825a938 938 0 0 0 -6.836 -2.23C344.794 788.196 324.737 781.21 305 773l-3.613 -1.502C274.244 760.153 247.534 747.638 222 733l-2.595 -1.487C203.374 722.257 188.032 712.117 174 700l-2.398 -2.063C146.2 675.577 128.085 650.055 117 618l-0.757 -2.115c-9.667 -27.716 -9.126 -62.329 -3.243 -90.885l0.586 -2.91c3.647 -17.608 8.475 -35.715 16.252 -51.991 4.735 -10.125 5.985 -18.355 5.46 -29.48 -0.189 -4.165 -0.24 -8.332 -0.29 -12.502l-0.034 -2.442c-0.078 -9.26 1.242 -17.849 4.026 -26.675l0.748 -2.403c4.49 -13.997 10.52 -26.795 19.377 -38.535 4.53 -6.019 7.02 -12.038 9.465 -19.117 10.116 -29.105 33.4 -50.99 60.57 -64.25 31.96 -15.122 68.626 -18.76 102.372 -7.25 6.476 2.366 12.458 5.495 18.429 8.918 4.29 2.38 4.29 2.38 8.992 2.143l2.082 -0.877 2.41 -0.98 2.618 -1.087C385.426 267.866 405.635 262.346 426 258l3.009 -0.644c16.238 -3.42 32.47 -5.816 48.991 -7.356l2.286 -0.218c5.944 -0.538 11.872 -0.707 17.835 -0.865" fill="#E47424"/><path d="M498.121 248.917c31.97 -0.714 63.514 1.84 94.879 8.083l5.27 1c16.103 3.135 31.726 7.933 47.293 13.062l3.103 1.011c4.16 1.386 8.2 2.734 12.06 4.83 2.883 1.555 5.022 2.696 8.274 3.097 3.518 -1.471 6.46 -3.449 9.535 -5.66 13 -9.214 32.84 -12.83 48.465 -13.34l1.936 -0.094c32.472 -1.47 68.896 8.64 93.449 30.718 2.587 2.411 5.102 4.888 7.615 7.376l2.043 1.86c12.234 11.31 20.917 28.268 25.957 43.952 2.166 6.7 5.106 11.413 9.566 16.926 9.235 11.866 14.97 26.75 18.434 41.262l0.842 3.519c2.105 9.487 2.21 18.234 1.753 27.899 -0.721 17.636 2.489 30.057 9.921 46.175 8.19 18.804 12.411 39.224 15.484 59.407l0.613 3.793c0.764 6.525 0.585 13.145 0.574 19.707l-0.001 2.175c-0.024 10.241 -0.24 20.23 -2.186 30.325l-0.39 2.11c-6.344 33.648 -22.29 62.054 -45.61 86.89l-1.491 1.594c-9.05 9.597 -18.8 17.722 -29.509 25.406l-2.072 1.489C792.483 743.042 744.58 764.442 697 782l-3.429 1.269C667.783 792.768 641.786 800.822 615 807l-3.447 0.805c-78.364 17.957 -163.093 14.49 -239.588 -10.825a938 938 0 0 0 -6.836 -2.23C344.794 788.196 324.737 781.21 305 773l-3.613 -1.502C274.244 760.153 247.534 747.638 222 733l-2.595 -1.487C203.374 722.257 188.032 712.117 174 700l-2.398 -2.063C146.2 675.577 128.085 650.055 117 618l-0.757 -2.115c-9.667 -27.716 -9.126 -62.329 -3.243 -90.885l0.586 -2.91c3.647 -17.608 8.475 -35.715 16.252 -51.991 4.735 -10.125 5.985 -18.355 5.46 -29.48 -0.189 -4.165 -0.24 -8.332 -0.29 -12.502l-0.034 -2.442c-0.078 -9.26 1.242 -17.849 4.026 -26.675l0.748 -2.403c4.49 -13.997 10.52 -26.795 19.377 -38.535 4.53 -6.019 7.02 -12.038 9.465 -19.117 10.116 -29.105 33.4 -50.99 60.57 -64.25 31.96 -15.122 68.626 -18.76 102.372 -7.25 6.476 2.366 12.458 5.495 18.429 8.918 4.29 2.38 4.29 2.38 8.992 2.143l2.082 -0.877 2.41 -0.98 2.618 -1.087C385.426 267.866 405.635 262.346 426 258l3.009 -0.644c16.238 -3.42 32.47 -5.816 48.991 -7.356l2.286 -0.218c5.944 -0.538 11.872 -0.707 17.835 -0.865M459 279l-3.154 0.422c-22.408 3.104 -44.434 8.737 -65.868 15.926 -1.914 0.63 -3.84 1.22 -5.767 1.808l-3.336 1.031 -2.82 0.856L376 300c-1.16 3.482 -0.897 3.82 0.652 6.95l1.104 2.321q1.17 2.39 2.351 4.774c2.504 5.293 3.51 9.088 2.893 14.955 -2 3 -2 3 -5.187 4.062 -4.584 -0.075 -5.802 -0.981 -8.997 -4.054 -2.778 -3.071 -5.32 -6.313 -7.875 -9.57C347.513 302.577 326.345 290.648 305 288c-16.422 -0.84 -33.297 -1.405 -49 4l-3.441 1.133C240.934 297.278 230.439 303.06 221 311l-1.848 1.445c-2.697 2.13 -4.041 3.222 -5.152 6.555l2.269 -0.048c15.237 -0.276 29.801 -0.13 44.731 3.048l2.041 0.39c26.225 5.017 52.75 21.696 68.522 43.235C351.478 395.521 356.656 430.06 350 465c-3.863 18.195 -12.06 32.91 -24 47l-1.8 2.297c-15.365 19.062 -44.005 32.43 -67.848 35.418C234.706 551.557 211.396 547.03 192 537l-2.234 -1.09c-16.924 -9.098 -29.75 -25.936 -39.766 -41.91 -2.164 2.164 -2.533 3.212 -3.367 6.086l-0.74 2.543 -0.768 2.746 -0.798 2.819c-2.623 9.498 -4.615 19.105 -6.327 28.806l-0.535 2.704c-0.579 4.103 -0.646 8.114 -0.668 12.253l-0.017 2.61q-0.014 2.734 -0.02 5.469c-0.01 2.73 -0.04 5.459 -0.072 8.189 -0.184 30.32 8.602 59.63 27.312 83.775l2.035 2.703c36.173 46.247 97.057 72.38 150.07 93.54l3.802 1.521c31.505 12.628 63.292 23.077 96.343 30.923l3.621 0.866C468.138 792.781 519.981 795.065 569 788l3.846 -0.552c15.919 -2.355 31.581 -5.405 47.154 -9.448l4.945 -1.25c9.26 -2.362 18.43 -4.957 27.515 -7.923q2.811 -0.915 5.627 -1.814c34.538 -11.057 69.448 -23.945 101.603 -40.81 2.847 -1.482 5.71 -2.931 8.572 -4.383C796.405 707.485 821.953 691.733 845 670l2.41 -2.246C869.688 646.34 881.744 618.043 887 588c0.26 -1.382 0.26 -1.382 0.523 -2.792 0.875 -5.887 0.722 -11.83 0.727 -17.77l0.002 -2.098c-0.037 -24.114 -4.378 -47.871 -13.252 -70.34 -3.458 3.212 -6.086 6.82 -8.75 10.687 -12.423 17.58 -27.44 30.005 -48.106 36.619q-2.237 0.726 -4.46 1.498c-11.631 3.997 -22.487 5.742 -34.809 5.758l-3.625 0.008c-7.788 -0.146 -14.802 -1.314 -22.25 -3.57l-2.146 -0.647c-30.069 -9.644 -54.567 -29.69 -69.156 -57.689 -11.896 -23.862 -14.862 -54.96 -7.698 -80.664l0.536 -1.95c8.353 -29.882 25.121 -53.34 52.081 -69.179 9.618 -5.32 18.86 -9.252 29.446 -12.184l2.646 -0.734c12.516 -3.277 24.76 -4.249 37.666 -4.078q2 0.016 4 0.027 4.813 0.035 9.625 0.098c-6.39 -13.475 -24.778 -21.204 -38 -26 -11.9 -3.787 -23.343 -5.227 -35.803 -5.295q-2.175 -0.017 -4.35 -0.062c-25.093 -0.512 -46.057 9.295 -64.054 26.513 -3.52 3.585 -6.683 7.366 -9.758 11.336 -5.853 7.212 -5.853 7.212 -9.535 8.133 -3.76 -0.94 -5.247 -2.511 -7.5 -5.625 -0.31 -7.443 3.754 -15.727 7.16 -22.207 1.052 -1.916 1.052 -1.916 0.84 -4.793 -61.717 -21.312 -124.914 -30.858 -190 -22" fill="#0F0F0D"/><path d="M229 605c3.184 1.637 3.184 1.637 6.438 3.688 33.451 20.063 77.795 21.754 115.687 21.687h3.397c19.978 -0.038 39.548 -1.31 59.327 -4.074q3.222 -0.449 6.445 -0.884c12.503 -1.71 24.95 -3.67 37.347 -6.034l2.165 -0.413a946 946 0 0 0 10.178 -2.003c14.218 -2.807 28.447 -3.203 42.891 -3.217l2.299 -0.003c13.784 0.012 27.205 1.052 40.826 3.253l3.046 0.486c9.05 1.468 18.053 3.09 27.016 5.014 12.526 2.544 25.25 4.014 37.938 5.5l3.15 0.373c16.771 1.869 33.622 1.858 50.475 1.94l3.381 0.029c35.405 0.261 79.732 -2.872 110.432 -22.717 4.52 -2.858 7.257 -3.54 12.562 -2.625 3.065 2.043 3.822 3.44 4.938 6.938 0.078 3.84 -0.543 5.068 -2.938 8.062 -29.393 29.393 -86.132 35.185 -125.582 35.19l-2.48 -0.003 -2.547 -0.001c-35.121 -0.069 -69.424 -5.087 -103.832 -11.864 -7.513 -1.48 -15.03 -2.931 -22.559 -4.322l-2.167 -0.411c-13.863 -2.541 -28.194 -1.858 -42.234 -1.642 -2.104 0.03 -4.207 0.055 -6.311 0.063 -12.28 0.05 -24.08 2.531 -36.075 4.958 -13.345 2.699 -26.764 4.911 -40.213 7.032l-2.895 0.457a607 607 0 0 1 -15.364 2.187q-2.88 0.375 -5.756 0.77c-57.648 7.812 -130.8 4.946 -178.72 -31.496 -3.163 -2.678 -3.218 -3.507 -3.702 -7.73 0.054 -3.717 0.42 -4.168 3 -7.25 4.258 -2.4 5.747 -2.021 10.437 -0.938" fill="#100F0D"/><path d="M832 358.938c19.154 15.222 28.6 37.207 31.64 61.054 2.772 28.16 -4.093 53.665 -21.515 76.133C835 504.755 827.758 511.45 818 517c-0.755 0.44 -1.51 0.88 -2.29 1.332 -13.333 7.217 -29.503 12.242 -44.71 11.668 3.079 -2.052 6.15 -3.495 9.5 -5.062 22.236 -10.885 39.765 -32.542 47.895 -55.715 6.95 -23.802 2.533 -48.641 -9.15 -70.072 -9.466 -16.363 -24.775 -28.471 -42.62 -34.651 -17.323 -4.404 -36.866 -2.825 -52.625 5.5l-2 -1c31.245 -30.037 74.564 -36.975 110 -10.062M287 356c5.327 3.708 10.269 7.644 14 13 -6 -2 -6 -2 -8.156 -2.766l-2.281 -0.796c-0.7 -0.25 -1.4 -0.498 -2.122 -0.754 -18.074 -5.061 -38.932 -2.274 -55.253 6.433 -4.429 2.616 -8.357 5.456 -12.188 8.883l-2.23 1.95c-15.405 14.343 -25.011 35.791 -26.118 56.663 -0.896 26.433 8.365 47.451 25.715 67.063C227.47 515.27 239.465 524.442 252 529v1c-18.527 1.347 -40.908 -7.194 -55 -19l-2.535 -2.086C181.12 497.441 171.794 482.565 166 466l-0.692 -1.904C158.62 445.11 158.305 422.303 164 403l0.809 -3.027c6.531 -22.092 20.985 -39.085 40.89 -50.368C232.667 336.49 262.171 340.053 287 356" fill="#F2E9BF"/><path d="M524.285 345.621c6.642 3.374 11.41 7.68 14.278 14.629 2.383 7.978 2.831 15.511 -0.688 23.188 -3.545 6.189 -8.504 10.118 -15.055 12.828 -7.517 1.957 -16.833 2.301 -23.883 -1.266 -7.332 -4.991 -12.22 -11.232 -13.937 -20 -0.77 -8.087 0.859 -15.759 5.938 -22.25 9.632 -10.02 20.804 -12.178 33.347 -7.129" fill="#100F0D"/><path d="M301.184 400.676c5.66 4.127 9.259 9.494 10.816 16.324 0.734 6.086 0.043 11.944 -3.41 17.11 -4.673 5.832 -8.875 8.345 -16.262 9.199 -6.294 0.286 -11.223 -0.489 -16.328 -4.309 -4.537 -4.264 -7.586 -8.514 -8.336 -14.832 -0.103 -7.897 0.675 -13.308 6.207 -19.14 7.97 -7.338 17.39 -10.065 27.313 -4.352" fill="#F2E9C0"/><path d="M741.512 398.836c6.915 3.499 11.092 8.547 13.863 15.726 1.234 6.788 0.984 12.375 -2.375 18.438 -4.59 6.084 -9.689 9.144 -17.156 10.348 -6.403 0.44 -11.709 -1.562 -16.844 -5.348 -5.65 -6.53 -7.44 -12.307 -7.336 -20.86 0.626 -5.855 3.041 -10.024 7.344 -13.992 6.775 -5.275 14.105 -7.107 22.504 -4.312" fill="#F2E8BE"/><path d="M593.75 510.125c3.956 2.282 5.382 3.691 7.25 7.875 1.058 7.136 0.232 13.107 -4 19 -4.96 6.128 -10.584 9.528 -18 12 -5.352 0.345 -8.67 0.488 -13 -3 -3.587 -3.773 -4.55 -6.115 -4.5 -11.312 0.32 -8.63 2.571 -13.122 8.813 -19 7.425 -6.176 14.043 -8.381 23.437 -5.563M442 510c7.046 2.102 11.888 5.989 16 12l1.875 2.625c1.772 5.317 2.004 10.842 1.125 16.375 -2.588 3.852 -4.444 5.91 -9 7 -8.491 1.298 -14.922 -1.373 -22 -6 -5.414 -4.563 -8.355 -10.317 -9.316 -17.297 -0.28 -5.386 0.719 -8.489 4.316 -12.703 5.132 -3.421 11.02 -2.614 17 -2m412 44c4.4 2.816 8.068 6.062 10 11 0.579 4.2 0.467 7.893 -1.187 11.813 -3.563 4.3 -7.759 7.79 -13.399 8.523 -6 0.084 -9.753 -0.141 -14.414 -4.336 -3.913 -4.452 -4.42 -8.668 -4.336 -14.43 0.549 -4.196 2.255 -6.736 5.336 -9.57 5.543 -4.253 11.343 -5.191 18 -3" fill="#100F0D"/><path d="M182 554c4.947 2.614 8.482 5.965 11 11 0.874 6.015 0.014 10.376 -3.523 15.336 -2.78 3.132 -5.465 4.369 -9.579 4.973 -5.748 0.326 -10.188 -0.995 -14.898 -4.309 -3.99 -4.296 -5.325 -6.991 -5.207 -12.914 0.592 -5.963 4.14 -9.254 8.488 -12.887 4.36 -3.042 8.791 -2.288 13.719 -1.199" fill="#100F0E"/></svg>